<svg version="1.1" xmlns="http://www.w3.org/2000/svg" x="0px" y="0px"
	 width="100%" viewBox="0 0 200 200" enable-background="new 0 0 200 200" xml:space="preserve">
<path fill="#D67758" opacity="1.000000" stroke="none"
	d="
M53.000000,1.000000
	C57.024544,1.000000 61.049088,1.000000 65.175385,1.202979
	C66.984406,3.615170 69.141693,5.607752 70.326256,8.068574
	C78.311020,24.656212 86.115509,41.330967 93.921341,58.004215
	C96.787148,64.125557 99.498123,70.319382 102.528946,77.032135
	C104.084595,60.405041 105.424385,44.385986 107.158386,28.409712
	C107.827477,22.245066 108.937241,16.041183 110.715530,10.116078
	C111.812950,6.459589 115.071068,3.620605 119.385529,4.362417
	C123.711098,5.106139 127.595177,11.165309 126.823563,15.335253
	C124.347687,28.715338 121.702316,42.064106 119.237900,55.446239
	C118.320816,60.426144 117.723061,65.464851 116.979691,70.476746
	C126.122215,60.887997 133.923386,50.701962 142.188583,40.907505
	C147.070068,35.122814 152.243088,29.384371 158.187469,24.793749
	C160.598816,22.931561 166.526535,22.609264 168.913345,24.310028
	C175.336472,28.886961 175.780411,37.103584 170.933426,43.763550
	C165.907303,50.669601 160.383347,57.213272 155.355530,64.118156
	C149.602722,72.018700 144.156570,80.142540 138.036789,88.946777
	C140.698654,88.946777 141.891693,89.136620 143.004028,88.917198
	C153.297363,86.886620 163.538406,84.564270 173.871841,82.771584
	C182.877380,81.209267 192.021332,76.657303 201.000000,83.000000
	C201.000000,84.714355 201.000000,86.428719 200.768372,88.197693
	C198.891327,90.115234 197.538803,93.150375 195.551956,93.646828
	C184.421692,96.427872 173.120483,98.515556 161.912796,100.998665
	C152.608215,103.060120 143.352173,105.340675 134.074615,107.524178
	C134.793488,108.674461 135.480148,108.941246 136.176743,108.970383
	C153.051590,109.676071 169.931229,110.282211 186.798889,111.127899
	C189.110062,111.243782 191.568100,112.177612 193.591446,113.360153
	C196.251190,114.914627 198.547440,117.091034 201.000000,119.000000
	C201.000000,121.041664 201.000000,123.083336 200.630722,125.561234
	C196.055252,127.331474 191.579453,130.324051 187.692825,129.692230
	C175.439606,127.700371 163.408447,124.344559 151.289200,121.525818
	C145.293259,120.131264 139.292618,118.756935 131.991745,117.073067
	C133.420227,118.768021 133.782867,119.310303 134.250778,119.737213
	C148.436066,132.679840 162.600464,145.645691 176.850037,158.517242
	C179.996262,161.359222 181.142517,166.192627 178.599365,168.610764
	C175.313843,171.734802 172.963211,168.906570 170.582428,166.955551
	C161.034576,159.131134 151.516541,151.270187 141.941727,143.478989
	C139.381516,141.395691 136.658981,139.511871 134.010956,137.536484
	C133.607147,138.938385 133.727737,139.744980 134.139145,140.355606
	C140.007477,149.065491 145.917175,157.747513 151.812286,166.439377
	C154.219040,169.987930 156.289474,173.498016 156.136002,178.176926
	C156.019043,181.742905 155.371780,184.519440 151.759247,185.487503
	C148.136536,186.458282 144.626129,186.213120 142.213943,182.642136
	C136.141632,173.652710 129.949402,164.742264 124.000702,155.671982
	C119.552719,148.889893 115.409264,141.908112 111.100006,134.966614
	C110.599045,135.407516 110.199974,135.586853 110.181160,135.799789
	C108.741928,152.085083 107.474968,168.387299 105.843239,184.652939
	C105.277481,190.292572 106.355415,196.753235 100.234467,200.528000
	C100.489647,200.685333 100.744827,200.842667 101.000000,201.000000
	C98.629440,201.000000 96.258888,201.000000 93.833786,200.819687
	C90.907906,196.903976 87.072769,193.560608 88.248520,188.083084
	C89.003754,184.564682 90.109161,181.116287 90.761772,177.581894
	C93.618408,162.111038 96.367043,146.620239 99.428864,130.972900
	C99.738861,130.029114 99.774857,129.249100 99.847801,127.668602
	C99.055031,129.035385 98.691139,129.662766 98.077103,130.523041
	C93.007149,137.403381 88.460678,144.271652 83.307579,150.649811
	C74.102165,162.043686 64.574623,173.179138 55.084850,184.340240
	C52.345852,187.561615 48.964722,186.150955 46.779293,183.965775
	C45.573147,182.759750 45.697086,179.729736 46.019341,177.645340
	C46.276428,175.982422 47.591057,174.390259 48.693123,172.965332
	C57.962231,160.980789 67.272224,149.027695 76.610054,137.096558
	C80.369713,132.292786 84.229530,127.567390 88.669785,122.024910
	C86.865532,122.661026 86.054413,122.780121 85.435692,123.189804
	C73.262596,131.250290 61.244019,139.554047 48.899719,147.341827
	C42.891933,151.132050 37.497284,156.295319 29.782852,156.965317
	C26.135368,157.282120 23.134750,156.250656 22.248133,152.915344
	C21.385206,149.669128 21.294502,145.934616 25.138670,143.712555
	C27.683960,142.241272 30.001751,140.378189 32.538258,138.889664
	C45.008564,131.571548 57.527710,124.336700 70.007332,117.034378
	C73.517349,114.980530 76.951897,112.797707 80.421059,110.674042
	C80.186905,110.241226 79.952751,109.808403 79.718597,109.375580
	C69.706085,108.919128 59.695793,108.404739 49.680492,108.021317
	C37.907520,107.570595 26.129904,107.242073 14.354900,106.842934
	C9.720629,106.685844 5.114158,106.437202 2.328964,101.795471
	C2.241773,101.650162 1.458673,101.922409 1.000000,102.000000
	C1.000000,99.958336 1.000000,97.916664 1.231236,95.805382
	C3.372532,94.903641 5.326461,93.267410 7.185591,93.368835
	C20.025038,94.069313 32.848354,95.086021 45.669212,96.097923
	C52.069160,96.603050 58.448063,97.370811 64.845711,97.910316
	C69.811684,98.329086 74.791969,98.578140 80.943665,98.979469
	C79.459854,97.357590 78.945869,96.531670 78.210060,96.033218
	C72.226433,91.979713 66.179741,88.019371 60.193226,83.970078
	C47.264011,75.224724 34.343884,66.465714 21.454044,57.662502
	C17.759706,55.139423 14.995257,47.242126 16.537231,44.060074
	C19.241545,38.479404 22.185015,36.725563 29.036097,39.192440
	C33.763245,40.894554 37.826336,44.587547 42.004627,47.639400
	C53.820637,56.269890 65.543167,65.028358 77.485039,73.957481
	C78.045753,74.266022 78.423958,74.353493 78.802162,74.440956
	C78.585197,73.913704 78.368233,73.386459 78.108185,72.503853
	C69.092789,56.503029 59.921814,40.966923 51.225464,25.169544
	C46.302803,16.227268 44.309063,11.057760 52.358326,3.123182
	C52.820633,2.667460 52.797310,1.719091 53.000000,1.000000
z"/>
</svg>
